<?xml version="1.0" standalone="no"?>
<!DOCTYPE svg PUBLIC "-//W3C//DTD SVG 20010904//EN"
 "http://www.w3.org/TR/2001/REC-SVG-20010904/DTD/svg10.dtd">
<svg version="1.0" xmlns="http://www.w3.org/2000/svg"
 width="1276.000000pt" height="1280.000000pt" viewBox="0 0 1276.000000 1280.000000"
 preserveAspectRatio="xMidYMid meet">

<g transform="translate(0.000000,1280.000000) scale(0.100000,-0.100000)"
fill="#000000" stroke="none">
<path d="M4610 12790 c-425 -54 -801 -306 -996 -666 -21 -38 -39 -71 -41 -73
-1 -2 -29 22 -60 53 -139 139 -375 240 -683 293 -123 21 -445 24 -545 4 -219
-42 -348 -98 -455 -198 -75 -69 -114 -129 -142 -215 -17 -54 -25 -67 -38 -62
-36 16 -151 42 -216 48 -203 20 -461 -63 -620 -200 -61 -52 -129 -149 -144
-205 -10 -35 -14 -39 -33 -33 -36 11 -149 6 -200 -9 -184 -57 -336 -268 -409
-566 -26 -106 -31 -353 -9 -441 24 -99 76 -193 136 -248 l55 -51 -35 -70 c-84
-167 -125 -369 -125 -614 0 -259 57 -455 160 -551 25 -24 52 -45 58 -47 10 -3
8 -16 -7 -50 -34 -76 -51 -182 -51 -312 0 -249 65 -460 176 -575 l51 -53 -13
-62 c-18 -83 -17 -330 1 -437 78 -460 292 -780 588 -881 45 -15 92 -22 171
-24 83 -2 110 -6 111 -16 1 -8 8 -96 15 -196 14 -201 9 -359 -15 -443 -9 -30
-20 -86 -25 -125 -5 -38 -27 -135 -50 -215 -32 -110 -44 -172 -50 -260 -4 -63
-15 -149 -25 -190 -19 -85 -15 -149 13 -213 l19 -43 -48 -28 c-168 -94 -269
-269 -241 -419 16 -84 54 -157 119 -227 73 -79 134 -103 248 -97 44 2 92 8
107 12 26 7 27 6 19 -26 -5 -19 -14 -65 -21 -104 -19 -110 -91 -417 -189 -812
-101 -408 -134 -561 -151 -713 -20 -187 -15 -173 -61 -166 -54 9 -158 -9 -226
-40 -196 -86 -341 -310 -388 -595 -51 -317 42 -623 238 -780 47 -37 273 -153
417 -214 622 -262 2104 -534 3355 -615 759 -49 1578 5 2525 166 973 166 1866
414 2322 645 149 76 340 211 443 314 141 139 251 330 302 522 34 128 38 349 9
453 -45 163 -139 285 -263 342 -57 26 -84 32 -165 36 -77 4 -98 8 -98 19 0 8
-20 76 -45 151 -78 242 -275 974 -275 1026 0 31 159 75 748 206 894 198 1051
252 1444 496 409 253 819 646 1038 995 222 355 333 712 396 1279 22 194 25
751 6 940 -29 287 -74 548 -132 775 -149 579 -440 1117 -740 1369 -236 197
-510 313 -854 361 -297 41 -816 -1 -1062 -85 -31 -11 -60 -20 -64 -20 -4 0 -3
28 2 63 26 177 -36 410 -166 631 -25 43 -46 83 -46 90 0 7 -13 31 -30 54 -33
46 -121 93 -208 111 -75 15 -256 13 -327 -4 -33 -8 -63 -14 -67 -15 -3 0 -9
24 -13 53 -49 371 -279 725 -551 848 -35 16 -99 35 -141 42 -75 13 -77 14 -86
46 -11 44 -100 132 -168 166 -93 47 -203 80 -355 106 -111 18 -409 7 -509 -20
-81 -22 -205 -75 -254 -110 l-27 -19 -17 47 c-26 73 -87 160 -164 232 -368
346 -1237 558 -1505 368 l-27 -20 -38 24 c-94 58 -215 87 -388 92 -71 2 -159
0 -195 -5z m373 -159 c94 -24 150 -52 204 -102 26 -23 53 -39 67 -39 26 0 66
34 66 56 0 26 44 53 111 69 79 18 156 19 266 5 346 -45 668 -164 890 -328 96
-72 154 -136 194 -217 27 -56 30 -72 30 -153 0 -86 1 -92 26 -111 35 -28 60
-26 89 7 13 15 45 50 70 78 91 104 248 161 471 171 201 9 384 -21 526 -85 114
-52 142 -90 117 -156 -13 -34 3 -73 34 -88 19 -8 40 -8 84 2 50 10 68 10 122
-4 95 -25 157 -62 246 -151 94 -93 126 -139 187 -261 72 -145 101 -250 117
-429 9 -101 12 -112 36 -133 31 -27 55 -24 110 13 50 34 94 46 200 52 139 9
294 -33 294 -79 0 -6 25 -53 55 -104 108 -180 155 -328 155 -485 0 -155 -42
-261 -138 -351 -66 -62 -123 -90 -197 -95 -77 -5 -120 16 -155 77 -28 48 -62
67 -102 57 -37 -10 -48 -47 -48 -166 0 -306 -171 -574 -388 -607 -59 -9 -119
10 -181 57 -59 45 -100 50 -131 17 -28 -31 -25 -52 18 -122 170 -269 203 -760
63 -920 -9 -10 -32 -27 -52 -37 -83 -42 -86 -64 -25 -163 113 -181 183 -454
175 -676 -4 -90 -8 -114 -32 -161 -40 -83 -62 -89 -245 -63 -54 8 -82 -14 -82
-62 0 -26 8 -39 36 -61 36 -27 36 -28 31 -85 -9 -99 -78 -217 -148 -254 -36
-18 -92 -18 -128 0 -36 19 -105 95 -130 144 -28 54 -68 85 -101 77 -40 -10
-51 -28 -60 -103 -18 -143 -88 -212 -216 -212 -153 0 -331 92 -420 216 -52 73
-72 87 -109 78 -40 -10 -55 -41 -55 -112 0 -34 -5 -106 -11 -160 -41 -379
-190 -585 -447 -622 -83 -11 -119 -6 -243 40 -254 93 -429 267 -500 500 -33
107 -33 300 -1 414 54 190 142 327 316 492 103 99 119 118 119 146 0 36 -32
68 -70 68 -123 0 -323 259 -417 541 -57 169 -65 306 -23 386 22 42 21 76 -2
97 -39 36 -78 37 -277 11 -291 -38 -405 -32 -507 29 -92 55 -140 152 -157 318
-9 89 -27 118 -75 118 -46 0 -66 -29 -76 -115 -23 -194 -165 -358 -381 -439
-294 -111 -583 -51 -673 139 -31 67 -49 85 -84 85 -34 0 -62 -30 -85 -92 -22
-59 -79 -119 -148 -155 -47 -24 -64 -27 -153 -28 -95 0 -104 2 -180 38 -68 32
-95 53 -176 138 -101 104 -122 115 -166 84 -20 -14 -21 -25 -24 -182 -5 -197
-16 -231 -89 -272 -39 -22 -47 -23 -92 -12 -27 6 -85 11 -128 11 -65 0 -86 -4
-130 -28 -123 -63 -129 -180 -25 -465 66 -180 93 -291 76 -311 -7 -9 -21 -16
-31 -16 -54 0 -100 -39 -100 -86 0 -8 31 -47 68 -88 77 -83 112 -147 112 -206
0 -79 -42 -123 -149 -154 -100 -29 -117 -73 -56 -146 19 -23 35 -50 35 -60 0
-25 -50 -74 -111 -106 -51 -28 -66 -54 -56 -97 31 -139 37 -175 32 -198 -3
-14 -27 -51 -52 -80 -63 -74 -80 -117 -92 -239 -8 -72 -24 -144 -51 -228 -28
-86 -43 -155 -49 -225 -6 -56 -19 -142 -31 -190 -28 -120 -26 -167 9 -246 16
-36 44 -106 62 -154 31 -86 32 -89 16 -123 -10 -19 -17 -46 -17 -60 0 -31 -24
-89 -41 -100 -8 -4 -38 -11 -67 -15 -76 -10 -96 -31 -87 -89 22 -135 -22 -231
-127 -274 -79 -34 -161 -15 -217 49 -69 79 -91 185 -54 263 28 60 111 133 211
185 129 68 140 95 67 177 -25 28 -46 61 -46 73 -3 43 3 93 18 152 8 33 16 103
18 155 2 76 12 125 45 240 23 80 44 168 46 195 3 28 14 84 25 126 37 147 39
245 10 673 -12 177 -21 194 -94 187 -23 -3 -94 -5 -157 -5 -109 -1 -119 1
-180 30 -166 79 -294 243 -378 484 -91 260 -109 630 -37 733 18 26 19 67 2 90
-6 9 -33 25 -58 36 -82 34 -144 156 -175 341 -34 209 -6 389 80 517 14 20 26
46 26 56 0 28 -45 67 -78 67 -48 0 -94 39 -130 110 -129 259 -75 806 102 1023
64 79 48 131 -49 152 -45 10 -109 81 -134 150 -104 278 29 755 246 881 62 37
149 43 228 15 72 -26 87 -26 115 -3 18 14 23 31 27 76 5 79 23 116 85 182 111
118 267 183 458 191 135 6 205 -8 316 -64 83 -41 115 -40 139 7 8 16 15 54 15
84 0 189 175 343 453 397 378 73 905 -31 1119 -221 70 -62 95 -102 108 -171
11 -58 37 -89 75 -89 35 0 61 29 84 92 143 396 459 674 873 767 120 28 357 28
461 2z m6072 -2665 c244 -43 469 -132 637 -253 272 -196 537 -614 702 -1105
150 -452 218 -897 218 -1438 0 -399 -35 -721 -112 -1036 -69 -278 -155 -474
-315 -714 -292 -439 -835 -888 -1332 -1101 -198 -85 -399 -140 -1028 -280
-401 -89 -552 -126 -670 -164 -44 -14 -81 -25 -82 -25 -9 0 -103 585 -128 801
l-6 57 63 6 c329 35 650 90 1110 192 444 97 673 230 1092 635 176 170 250 265
322 414 162 336 233 761 221 1320 -8 355 -48 639 -126 901 -93 310 -205 467
-440 619 -151 98 -366 184 -566 227 -146 32 -377 32 -493 0 -273 -75 -669
-273 -1182 -592 -91 -57 -178 -111 -195 -121 l-30 -18 3 139 c2 94 -2 170 -12
230 -17 96 -19 161 -8 225 7 39 8 39 69 52 233 47 412 269 477 594 8 38 41 51
103 41 145 -24 318 56 423 194 25 32 49 62 55 66 5 4 64 25 130 47 120 39 334
83 495 100 117 13 506 5 605 -13z m-485 -1082 c267 -50 572 -202 712 -353 98
-105 170 -262 227 -493 146 -586 131 -1335 -35 -1837 -32 -97 -102 -245 -145
-308 -78 -114 -351 -382 -539 -528 -168 -132 -366 -233 -544 -280 -344 -91
-999 -209 -1232 -222 l-111 -6 -7 134 c-3 74 -11 190 -16 259 -5 69 -14 193
-20 275 -5 83 -19 278 -30 435 -11 157 -29 418 -40 580 -11 162 -25 358 -30
435 -14 197 -42 633 -61 949 -6 98 -7 182 -2 186 38 35 706 433 903 538 219
117 496 227 630 251 71 13 232 6 340 -15z m-5871 -357 c76 -84 175 -130 324
-148 80 -10 115 -9 262 10 94 12 177 21 185 21 12 0 15 -14 12 -77 -7 -150 53
-361 157 -560 49 -92 137 -217 185 -262 24 -23 26 -31 26 -112 0 -86 -1 -88
-36 -131 -98 -116 -187 -284 -226 -424 -19 -67 -22 -105 -22 -249 0 -165 1
-173 32 -265 36 -108 92 -210 158 -287 42 -49 45 -55 39 -95 -8 -52 5 -350 45
-1028 47 -805 49 -831 61 -1125 15 -360 7 -882 -15 -980 -18 -78 -30 -93 -131
-150 -222 -124 -659 -164 -988 -90 -103 23 -242 80 -267 110 -44 53 -40 781
11 2300 16 453 16 1051 1 1310 -47 811 -68 1530 -53 1827 6 121 16 252 23 290
11 67 12 70 81 135 l71 66 15 -24 c9 -13 31 -41 50 -62z m-1239 -226 c0 -64
-7 -208 -15 -321 -14 -199 -23 -301 -64 -750 -34 -369 -70 -864 -82 -1135 -17
-371 -9 -732 41 -1910 41 -966 32 -1314 -36 -1484 -19 -49 -44 -64 -152 -92
-89 -23 -297 -27 -423 -9 -294 44 -615 175 -734 300 -30 31 -30 32 -29 138 2
126 16 223 89 587 159 801 182 978 165 1305 -6 107 -17 326 -25 485 -17 320
-40 854 -51 1153 -4 121 -3 192 3 192 5 0 28 16 52 36 119 102 127 276 21 428
l-40 56 21 21 c50 50 60 121 34 234 -13 56 -85 269 -115 343 -6 13 -10 59 -10
102 0 77 1 80 26 86 14 4 48 4 77 0 166 -20 172 -20 229 6 117 54 175 139 185
272 l6 75 36 -28 c95 -74 187 -115 299 -132 145 -22 297 27 401 131 51 50 58
54 74 41 14 -12 17 -32 17 -130z m866 22 c-3 -21 -9 -171 -12 -333 -8 -356 10
-943 47 -1565 17 -293 22 -894 10 -1270 -57 -1820 -61 -2326 -20 -2488 27
-110 203 -204 474 -253 137 -25 467 -25 610 -1 220 38 416 119 512 212 59 57
75 100 95 255 23 184 14 817 -22 1450 -14 248 -48 826 -60 1010 -14 219 -24
530 -18 530 3 0 31 -16 63 -35 77 -46 183 -89 285 -116 143 -37 278 -16 427
66 l63 35 0 -418 c-1 -397 -4 -570 -30 -1597 -8 -318 -8 -498 -1 -645 21 -387
68 -511 216 -560 257 -86 681 -9 1110 200 151 74 290 164 367 238 73 70 83 87
98 183 21 133 -9 360 -130 974 -152 767 -172 963 -186 1811 l-7 402 66 62 c83
77 139 183 158 295 l13 75 35 6 c20 4 57 17 83 29 l47 23 5 -61 c3 -34 10
-129 16 -212 5 -82 19 -279 30 -437 11 -159 29 -417 40 -575 11 -159 22 -319
25 -358 3 -38 12 -178 21 -309 13 -218 38 -414 79 -637 52 -280 99 -509 125
-614 16 -66 45 -187 65 -268 50 -210 146 -558 210 -759 53 -168 53 -173 37
-201 -37 -63 -219 -175 -432 -266 -681 -289 -2357 -666 -3430 -771 -669 -66
-1845 51 -2920 290 -646 143 -1123 315 -1286 464 l-57 51 12 130 c15 172 49
337 175 840 118 475 164 682 200 905 14 85 34 180 45 210 11 30 20 71 21 91 0
32 4 38 32 50 74 30 131 106 144 190 4 24 13 54 21 68 22 43 15 119 -17 201
-17 41 -30 82 -30 91 0 9 -14 42 -31 74 -30 57 -31 59 -18 124 6 36 16 76 20
88 5 12 13 73 19 135 8 79 23 150 50 236 22 67 44 162 50 210 6 48 13 101 16
118 2 17 24 54 50 84 24 29 52 66 60 82 23 44 28 127 14 203 -12 61 -11 67 6
80 11 7 20 13 21 12 1 -1 9 -175 18 -387 9 -212 20 -468 25 -570 5 -102 15
-327 21 -500 16 -429 8 -501 -141 -1260 -99 -507 -114 -605 -108 -740 7 -155
33 -195 191 -298 131 -84 309 -157 503 -206 170 -42 241 -50 424 -50 146 1
188 4 252 22 156 43 217 92 256 205 72 212 79 532 32 1627 -33 776 -42 1063
-42 1385 0 444 17 737 92 1595 37 434 58 710 66 888 4 78 8 142 9 142 1 0 28
-9 61 -21 74 -26 266 -37 372 -20 73 11 206 52 252 77 38 20 43 17 36 -23z
m3633 -1907 c25 -13 63 -26 84 -30 l37 -7 0 -292 c0 -311 13 -712 30 -917 22
-271 56 -481 161 -1016 105 -535 121 -641 123 -813 l1 -153 -50 -46 c-130
-118 -404 -262 -660 -346 -274 -90 -578 -112 -696 -50 -33 17 -54 68 -77 187
-15 79 -17 156 -17 557 0 256 6 663 14 905 7 242 14 701 15 1020 l2 580 38 79
c43 89 83 236 93 338 l6 68 51 -37 c117 -84 260 -133 389 -133 144 0 239 45
305 146 l33 50 36 -33 c19 -19 56 -44 82 -57z m1635 -4070 c213 -64 301 -368
200 -688 -72 -227 -198 -392 -425 -557 -221 -160 -520 -287 -1049 -444 -375
-112 -991 -250 -1475 -331 -757 -127 -1303 -176 -1964 -177 -280 0 -388 5
-746 32 -949 71 -2129 277 -2800 488 -197 62 -286 97 -485 194 -124 60 -165
86 -207 128 -168 168 -216 475 -119 761 42 124 85 195 163 268 73 69 145 100
233 100 55 0 64 -4 140 -55 461 -308 1506 -591 2715 -734 936 -111 1513 -94
2520 75 1380 232 2720 623 3089 901 62 46 77 53 117 53 25 0 67 -6 93 -14z"/>
<path d="M3865 11524 c-159 -37 -223 -63 -329 -131 -134 -86 -242 -209 -290
-328 l-24 -58 -84 2 c-61 1 -100 -4 -148 -19 -131 -43 -284 -154 -391 -285
l-61 -74 -52 28 c-134 74 -268 65 -374 -24 -38 -32 -81 -117 -84 -166 l-2 -37
-105 -4 c-90 -3 -116 -8 -168 -32 -75 -34 -159 -118 -194 -193 -22 -49 -27
-53 -73 -64 -72 -17 -125 -43 -193 -92 -218 -161 -366 -518 -294 -709 32 -83
39 -86 101 -37 38 30 50 45 45 57 -24 56 -28 97 -16 161 33 176 164 370 301
445 32 17 77 31 117 36 36 5 73 16 83 25 10 9 28 43 40 75 58 155 187 217 363
176 89 -21 120 -20 142 4 13 15 16 29 11 62 -19 123 -19 127 3 162 21 33 80
66 120 66 37 0 104 -31 163 -75 90 -68 108 -63 180 43 96 142 239 262 371 311
77 28 136 27 197 -4 89 -45 116 -30 135 79 21 121 86 219 205 311 128 99 308
163 422 151 67 -7 123 -28 155 -58 21 -20 22 -26 17 -122 -6 -99 -6 -102 19
-128 39 -42 48 -39 61 23 4 17 14 29 29 33 22 5 25 14 36 105 13 97 12 101 -8
135 -28 44 -106 102 -174 128 -51 20 -205 33 -252 22z"/>
<path d="M6084 11115 c-413 -75 -775 -341 -801 -588 l-6 -57 69 0 69 0 13 53
c27 116 146 235 329 329 362 187 746 181 827 -12 25 -61 28 -120 10 -205 -27
-129 -27 -143 -10 -169 20 -32 49 -36 113 -14 139 45 355 50 450 9 28 -13 62
-34 75 -48 21 -22 23 -34 23 -118 0 -64 4 -98 13 -107 10 -10 59 -13 190 -14
140 -1 199 -6 282 -23 182 -38 322 -119 373 -215 17 -32 21 -58 21 -116 0 -86
-22 -157 -78 -249 -58 -95 -57 -107 8 -180 64 -72 93 -140 102 -239 11 -112
-27 -240 -62 -211 -12 10 -17 9 -29 -7 -7 -10 -27 -37 -43 -59 l-30 -39 31
-23 c23 -17 44 -23 82 -23 74 0 111 28 155 115 35 69 35 71 35 200 0 109 -4
140 -23 196 -19 56 -56 122 -96 174 -5 7 5 39 27 86 128 271 71 492 -162 629
-132 77 -294 117 -512 127 l-137 6 -5 52 c-3 29 -12 67 -21 83 -39 75 -140
140 -253 162 -64 13 -323 10 -355 -4 -15 -7 -16 1 -11 72 15 219 -102 376
-319 427 -76 18 -246 18 -344 0z"/>
</g>
</svg>
